<?xml version="1.0" standalone="no"?><!DOCTYPE svg PUBLIC "-//W3C//DTD SVG 1.1//EN" "http://www.w3.org/Graphics/SVG/1.1/DTD/svg11.dtd"><svg t="1603701066937" class="icon" viewBox="0 0 1024 1024" version="1.1" xmlns="http://www.w3.org/2000/svg" p-id="21601" xmlns:xlink="http://www.w3.org/1999/xlink" width="200" height="200"><defs><style type="text/css"></style></defs><path d="M367.04 480.448H183.584c-62.25066667 0-113.17333333-50.93333333-113.17333333-113.17333333V183.81866667c0-62.25066667 50.93333333-113.17333333 113.17333333-113.17333334H367.04c62.25066667 0 113.17333333 50.93333333 113.17333333 113.17333334v183.456c0 62.25066667-50.93333333 113.17333333-113.17333333 113.17333333zM944.224 349.23733333L824.768 468.68266667c-40.52266667 40.52266667-106.848 40.52266667-147.37066667 0L557.952 349.23733333c-40.52266667-40.52266667-40.52266667-106.848 0-147.37066666l119.44533333-119.44533334c40.52266667-40.52266667 106.848-40.52266667 147.37066667 0L944.21333333 201.86666667c40.53333333 40.52266667 40.53333333 106.83733333 0.01066667 147.37066666zM367.04 955.66933333H183.584c-62.25066667 0-113.17333333-50.93333333-113.17333333-113.17333333V659.04c0-62.25066667 50.93333333-113.17333333 113.17333333-113.17333333H367.04c62.25066667 0 113.17333333 50.93333333 113.17333333 113.17333333v183.456c0 62.24-50.93333333 113.17333333-113.17333333 113.17333333zM842.816 955.66933333H659.36c-62.25066667 0-113.17333333-50.93333333-113.17333333-113.17333333V659.04c0-62.25066667 50.93333333-113.17333333 113.17333333-113.17333333h183.456c62.25066667 0 113.17333333 50.93333333 113.17333333 113.17333333v183.456c0 62.24-50.92266667 113.17333333-113.17333333 113.17333333z" p-id="21602" fill="#bfbfbf"></path></svg>