<?xml version="1.0" standalone="no"?><!DOCTYPE svg PUBLIC "-//W3C//DTD SVG 1.1//EN" "http://www.w3.org/Graphics/SVG/1.1/DTD/svg11.dtd"><svg t="1603700960785" class="icon" viewBox="0 0 1024 1024" version="1.1" xmlns="http://www.w3.org/2000/svg" p-id="17004" xmlns:xlink="http://www.w3.org/1999/xlink" width="200" height="200"><defs><style type="text/css"></style></defs><path d="M512.000427 85.333333c282.752 0 512 229.248 512 512 0 121.088-42.24 235.776-118.016 326.997334a42.666667 42.666667 0 0 1-65.621334-54.528A424.704 424.704 0 0 0 938.667093 597.333333c0-235.648-191.018667-426.666667-426.666666-426.666666S85.33376 361.685333 85.33376 597.333333c0 100.352 34.688 195.285333 97.194667 271.104a42.666667 42.666667 0 1 1-65.877334 54.272A509.994667 509.994667 0 0 1 0.000427 597.333333C0.000427 314.581333 229.248427 85.333333 512.000427 85.333333z m224 336.426667c2.645333 2.730667 2.773333 6.144 0.426666 10.154667l-173.226666 205.866666a64.341333 64.341333 0 0 1-4.352 5.162667l-1.365334 1.621333a64.426667 64.426667 0 0 1-45.482666 18.773334 64 64 0 0 1-23.210667-123.648l235.946667-119.637334c4.906667-1.621333 8.661333-1.024 11.306666 1.706667z" p-id="17005" fill="#bfbfbf"></path></svg>