<?xml version="1.0" standalone="no"?><!DOCTYPE svg PUBLIC "-//W3C//DTD SVG 1.1//EN" "http://www.w3.org/Graphics/SVG/1.1/DTD/svg11.dtd"><svg t="1603700995279" class="icon" viewBox="0 0 1024 1024" version="1.1" xmlns="http://www.w3.org/2000/svg" p-id="18705" xmlns:xlink="http://www.w3.org/1999/xlink" width="200" height="200"><defs><style type="text/css"></style></defs><path d="M127 192c-35.346 0-64-28.654-64-64 0-35.346 28.654-64 64-64 35.346 0 64 28.654 64 64 0 35.346-28.654 64-64 64z m0 384c-35.346 0-64-28.654-64-64 0-35.346 28.654-64 64-64 35.346 0 64 28.654 64 64 0 35.346-28.654 64-64 64z m0 384c-35.346 0-64-28.654-64-64 0-35.346 28.654-64 64-64 35.346 0 64 28.654 64 64 0 35.346-28.654 64-64 64zM288 88h632c22.091 0 40 17.909 40 40s-17.909 40-40 40H288c-22.091 0-40-17.909-40-40s17.909-40 40-40z m0 384h632c22.091 0 40 17.909 40 40s-17.909 40-40 40H288c-22.091 0-40-17.909-40-40s17.909-40 40-40z m0 384h632c22.091 0 40 17.909 40 40s-17.909 40-40 40H288c-22.091 0-40-17.909-40-40s17.909-40 40-40z" p-id="18706" fill="#bfbfbf"></path></svg>